PathFileType	4	(X/Y/Z)	56_1_29_p1_0-155_filt_butterworth.trc
DataRate	CameraRate	NumFrames	NumMarkers	Units	OrigDataRate	OrigDataStartFrame	OrigNumFrames
40.0	40.0	5	27	m	40.0	19	155
Frame#	Time	RHip			RKnee			RAnkle			RBigToe			RSmallToe			RHeel			LHip			LKnee			LAnkle			LBigToe			LSmallToe			LHeel			Neck			Head			Nose			RShoulder			RElbow			RWrist			RThumb			RIndex			RPinky			LShoulder			LElbow			LWrist			LThumb			LIndex			LPinky			
		X1	Y1	Z1	X2	Y2	Z2	X3	Y3	Z3	X4	Y4	Z4	X5	Y5	Z5	X6	Y6	Z6	X7	Y7	Z7	X8	Y8	Z8	X9	Y9	Z9	X10	Y10	Z10	X11	Y11	Z11	X12	Y12	Z12	X13	Y13	Z13	X14	Y14	Z14	X15	Y15	Z15	X16	Y16	Z16	X17	Y17	Z17	X18	Y18	Z18	X19	Y19	Z19	X20	Y20	Z20	X21	Y21	Z21	X22	Y22	Z22	X23	Y23	Z23	X24	Y24	Z24	X25	Y25	Z25	X26	Y26	Z26	X27	Y27	Z27	
19	0.475	0.4829550655837441	0.7289066433599728	0.342575805217959	0.47709329333221506	0.847272937349479	0.6819259484010093	0.4840516139129224	1.0220702616328847	1.0561289049451335	0.4145044302891563	0.883460228913084	1.1461391599153443	0.4882485910556781	0.8786610012615738	1.1498208718207246	0.49545992786145915	1.1237956364573305	1.0911497066859825	0.27264680765804333	0.8083596621082507	0.32657831927673614	0.30624081799003716	0.9394809188195499	0.6543445806634846	0.3179700268140994	1.085729487222252	1.0135790325628826	0.24948828594188127	0.8894012010336774	1.11344313499998	0.21858445138018812	0.9823334285790652	1.116351715621513	0.34454817612852506	1.1345836685043313	1.0626628822551376	0.35343371281239705	0.5382039273159002	-0.19650974847052316	0.3039634136982479	0.3622118648649773	-0.42259659201521826	0.2857153687020213	0.3788234369140189	-0.2638372386670683	0.4937039473154416	0.49105487634139544	-0.11775770291129503	0.5439023270224359	0.5334506218252362	0.1513492332977059	0.3722080883460358	0.5437261470987391	0.3065575900324421	0.28077109594466537	0.5625265367598652	0.340071444159149	0.26424021069810644	0.5634732112038938	0.3748732136761136	0.28675502643492146	0.5905571469053112	0.40466226103943936	0.18298569797213568	0.5847950388277396	-0.15689906293471373	0.1352637501842739	0.7084641151905253	0.09852321497166264	0.2747887675307555	0.5487870361114056	0.26426552986538593	0.32186582862913715	0.4732174658556261	0.3277759286665968	0.3230895657488751	0.4820546704250201	0.3570561868938102	0.3274357663705727	0.5764931360201998	0.361809598715564
20	0.5	0.48290998841083843	0.7290968594751466	0.3432195154450422	0.47368812641564106	0.8357300876819127	0.680838746309988	0.48281482936060127	1.019829748410969	1.0552206768336438	0.4122032684320035	0.8798472775106021	1.1448465385349222	0.48637553944435863	0.8758945797435526	1.1507971933451304	0.49628898585463554	1.1245421818428114	1.091230841544271	0.27182022507899384	0.80860558151556	0.32446314214729965	0.3064397851489268	0.939632090621046	0.6543371928104736	0.3179568209762965	1.0858897863974666	1.013806137197608	0.24908210289121255	0.8900238847649591	1.1132286904899806	0.2185738569252389	0.98229404987475	1.1160523766592563	0.3444965112252034	1.1345209980454047	1.0602005110719706	0.35362443888056566	0.5381845001787104	-0.19581764923872555	0.30389142384903367	0.3620661209774836	-0.42268787408981545	0.2859055903096856	0.37995143701813866	-0.2622899700744874	0.49328078838693906	0.4911953312875088	-0.11469332837683324	0.5454920544716875	0.550081072058555	0.1520233665552599	0.374342704024082	0.5509241786754648	0.31537100196424206	0.28098554721436386	0.5649408085390808	0.33971371895215086	0.26723958201736264	0.5613747527831203	0.3813887302996587	0.28752190957271434	0.5963808226654442	0.41801061253945365	0.18297295735273542	0.5854928288654977	-0.15712495271483493	0.13741672958153675	0.7116298610449702	0.10130481714393864	0.2775952134431278	0.5497807335871226	0.2668451291326279	0.3231580461858023	0.4736855103767329	0.3329620613821922	0.32480718703541106	0.48224395528741704	0.3625951804695299	0.3292131354711916	0.576495414379904	0.3654769353407437
21	0.525	0.4828557804811393	0.7287643967764121	0.340425069394115	0.4653832735686679	0.8201280609333278	0.6797690195052897	0.4828344744847074	1.020257815250466	1.0527043242968068	0.40803937803164	0.873494205464507	1.14343408881088	0.482445484422648	0.8696720433740741	1.150155989370951	0.4964259934096475	1.1252216723690707	1.0912799089724123	0.26987768715206983	0.8082805692917909	0.32166716198252243	0.3063640954020389	0.9396429645754925	0.6542320617104285	0.31820860330106165	1.0860239222283132	1.0135565557472368	0.24897343711316225	0.8918673024199636	1.1132269354736626	0.21853944089762634	0.9824479964014589	1.1162140192418444	0.3444460717430399	1.1339170715471585	1.0572898131845634	0.35365297095089254	0.5381292089666296	-0.19596837622247926	0.30379826630318785	0.3621456394978443	-0.4216439080210427	0.2861955792721135	0.38084336042620326	-0.2592656353345027	0.49327694498732416	0.4917206538888946	-0.11239700390221546	0.5470812898226489	0.563398269933805	0.1524556412887201	0.3764953402979032	0.5508597500081976	0.32274719766339055	0.280315291091617	0.5626102924761157	0.34008291454210704	0.26583266708888054	0.5548370455615985	0.38539280287482974	0.28881291177092266	0.5961882753197212	0.4228972551165693	0.1828783314102763	0.5857619521952777	-0.15606987660831823	0.1369221941339641	0.7110803862506008	0.10452556373504399	0.27696500294442195	0.5477716443104371	0.2688966318513544	0.3253369411917346	0.4742333776576236	0.33614550833201384	0.3279691708972547	0.48441304462782175	0.3663471334654542	0.33297065960138106	0.5759434690747945	0.36914502712236563
22	0.55	0.4834843376913194	0.7290637117440131	0.33736601883700845	0.45420156665863354	0.8056841233353753	0.680413787108922	0.47864315852363304	1.0158037309825239	1.0509336572577257	0.40474920768464123	0.8698673190838417	1.1439488729716976	0.47947580602023543	0.8656616553475361	1.1489344439449969	0.49284904629950854	1.1218584532642277	1.0910379826507721	0.26718552516613886	0.807199987524981	0.31871457255763	0.3050025263278847	0.9392176331474874	0.6538268512444501	0.31818450951718935	1.0861508533531006	1.0120162072008165	0.2488293967382858	0.8934063566828214	1.1132869319646927	0.21852022257122683	0.9826872227403678	1.116386498072677	0.34434005024417436	1.1338262497356206	1.0549497797014282	0.3524596904217059	0.5380458369665484	-0.19514870397760156	0.3040912941032938	0.36298530340579843	-0.41917140386047	0.2863109305899921	0.377577707769042	-0.25646501333610605	0.4959291266870681	0.49569266972693515	-0.11036855544270116	0.5503035656959482	0.5790794910530233	0.15591631529265434	0.37804857339915543	0.539883073614728	0.3315532845468684	0.2787158202711101	0.5431972586108238	0.35070262122532136	0.26799737016414427	0.5498733826523713	0.393255743174924	0.30057349147843293	0.5889551082922552	0.4217669981742338	0.18269938253196635	0.5861759421953008	-0.15319673253060404	0.13574373701595732	0.7186466558335279	0.10285887090655721	0.258437332501649	0.5459328224618629	0.2675551855763392	0.3163753651333893	0.47422200796409597	0.3360693506825075	0.319103107973928	0.48987019079337885	0.3629544491571036	0.3217321017308976	0.566134807288394	0.36806258572949235
23	0.575	0.48378473865254423	0.7297694439484557	0.3371899515413226	0.442427016659495	0.7941359731924216	0.6811960645387894	0.4708999036997334	1.00488745299216	1.051626563323837	0.40331082279720326	0.8702695555162979	1.1446339082744474	0.4785102528170497	0.865714921390831	1.1488686361629021	0.4880504403545948	1.1155146502727318	1.0911684231302894	0.264822098047266	0.8063432863970256	0.3153271655797204	0.3025026817390297	0.938864315892936	0.6536165162306045	0.3167249504468143	1.0870247005442906	1.0114652020002428	0.24661924342365832	0.8899095855490211	1.1132558804091088	0.2185407839240966	0.9829758221461735	1.1163618561141928	0.342985849551131	1.1353017766953697	1.0557201683218072	0.3503861073538191	0.5380699590441201	-0.19267430608694847	0.3040527981894774	0.36314054079991276	-0.4167251307933869	0.2863723426507598	0.37139689785930097	-0.25391589201906145	0.5004597378352543	0.5021941352012794	-0.1088408338191114	0.5556347423135317	0.6011129527410145	0.1600320424253624	0.3839622797236805	0.5206693740152771	0.3395650141420745	0.2804355291934717	0.5120546969385298	0.3716332678860338	0.28263595923181445	0.5408149682804151	0.4039136063431993	0.31966723388683604	0.5693672182696006	0.4219009446270303	0.18251355060709196	0.5864747105871002	-0.1503076701621816	0.13597784907619648	0.7321954080708657	0.09368476246642653	0.22272992649231477	0.5495823203662304	0.2627465961081028	0.2831199538094171	0.469604758278362	0.3321187256209114	0.2787570220635681	0.4819441099160222	0.3520009392503765	0.27392520764442124	0.5260489428048027	0.3582616251637342
